<?xml version="1.0" encoding="UTF-8" standalone="no"?>
<!-- Created with Inkscape (http://www.inkscape.org/) -->

<svg
   xmlns:dc="http://purl.org/dc/elements/1.1/"
   xmlns:cc="http://creativecommons.org/ns#"
   xmlns:rdf="http://www.w3.org/1999/02/22-rdf-syntax-ns#"
   xmlns:svg="http://www.w3.org/2000/svg"
   xmlns="http://www.w3.org/2000/svg"
   xmlns:sodipodi="http://sodipodi.sourceforge.net/DTD/sodipodi-0.dtd"
   xmlns:inkscape="http://www.inkscape.org/namespaces/inkscape"
   width="512"
   height="128"
   id="svg2"
   version="1.1"
   inkscape:version="0.48.0 r9654"
   sodipodi:docname="icons.svg">
  <defs
     id="defs4" />
  <sodipodi:namedview
     id="base"
     pagecolor="#ffffff"
     bordercolor="#666666"
     borderopacity="1.0"
     inkscape:pageopacity="0.0"
     inkscape:pageshadow="2"
     inkscape:zoom="1.3769247"
     inkscape:cx="256"
     inkscape:cy="32"
     inkscape:document-units="px"
     inkscape:current-layer="layer1"
     showgrid="false"
     inkscape:window-width="1366"
     inkscape:window-height="716"
     inkscape:window-x="-8"
     inkscape:window-y="-8"
     inkscape:window-maximized="1"
     showguides="true"
     inkscape:guide-bbox="true">
    <sodipodi:guide
       orientation="0,1"
       position="70.489066,78.12326"
       id="guide3833" />
  </sodipodi:namedview>
  <metadata
     id="metadata7">
    <rdf:RDF>
      <cc:Work
         rdf:about="">
        <dc:format>image/svg+xml</dc:format>
        <dc:type
           rdf:resource="http://purl.org/dc/dcmitype/StillImage" />
        <dc:title></dc:title>
      </cc:Work>
    </rdf:RDF>
  </metadata>
  <g
     inkscape:label="back"
     inkscape:groupmode="layer"
     id="layer1"
     transform="translate(0,-924.36218)"
     style="display:none">
    <rect
       style="fill:#0000ff;fill-rule:evenodd;stroke:none"
       id="rect2985"
       width="64"
       height="64"
       x="0"
       y="988.36218"
       inkscape:export-filename="..\..\qml\images\ic_train.png"
       inkscape:export-xdpi="90"
       inkscape:export-ydpi="90" />
    <rect
       y="988.36218"
       x="64"
       height="64"
       width="64"
       id="rect3755"
       style="fill:#0000ff;fill-rule:evenodd;stroke:none"
       inkscape:export-filename="..\..\qml\images\ic_city.png"
       inkscape:export-xdpi="90"
       inkscape:export-ydpi="90" />
    <rect
       y="988.36218"
       x="128"
       height="64"
       width="64"
       id="rect3757"
       style="fill:#0000ff;fill-rule:evenodd;stroke:none"
       inkscape:export-filename="..\..\qml\images\ic_near.png"
       inkscape:export-xdpi="90"
       inkscape:export-ydpi="90" />
    <rect
       style="fill:#0000ff;fill-rule:evenodd;stroke:none"
       id="rect3759"
       width="64"
       height="64"
       x="192"
       y="988.36218"
       inkscape:export-filename="..\..\qml\images\ic_history.png"
       inkscape:export-xdpi="90"
       inkscape:export-ydpi="90" />
    <rect
       inkscape:export-ydpi="90"
       inkscape:export-xdpi="90"
       inkscape:export-filename="..\..\qml\images\ic_about.png"
       y="988.36218"
       x="256"
       height="64"
       width="64"
       id="rect4446"
       style="fill:#0000ff;fill-rule:evenodd;stroke:none" />
    <rect
       inkscape:export-ydpi="90"
       inkscape:export-xdpi="90"
       inkscape:export-filename="..\..\qml\images\ic_city.png"
       style="fill:#0000ff;fill-rule:evenodd;stroke:none"
       id="rect4448"
       width="64"
       height="64"
       x="320"
       y="988.36218" />
    <rect
       inkscape:export-ydpi="90"
       inkscape:export-xdpi="90"
       inkscape:export-filename="..\..\qml\images\ic_near.png"
       style="fill:#0000ff;fill-rule:evenodd;stroke:none"
       id="rect4450"
       width="64"
       height="64"
       x="384"
       y="988.36218" />
    <rect
       inkscape:export-ydpi="90"
       inkscape:export-xdpi="90"
       inkscape:export-filename="..\..\qml\images\ic_history.png"
       y="988.36218"
       x="448"
       height="64"
       width="64"
       id="rect4452"
       style="fill:#0000ff;fill-rule:evenodd;stroke:none" />
    <rect
       inkscape:export-ydpi="90"
       inkscape:export-xdpi="90"
       inkscape:export-filename="..\..\qml\images\ic_train2.png"
       y="924.36218"
       x="0"
       height="64"
       width="64"
       id="rect4489"
       style="fill:#0000ff;fill-rule:evenodd;stroke:none" />
    <rect
       inkscape:export-ydpi="90"
       inkscape:export-xdpi="90"
       inkscape:export-filename="..\..\qml\images\ic_city2.png"
       style="fill:#0000ff;fill-rule:evenodd;stroke:none"
       id="rect4491"
       width="64"
       height="64"
       x="64"
       y="924.36218" />
    <rect
       inkscape:export-ydpi="90"
       inkscape:export-xdpi="90"
       inkscape:export-filename="..\..\qml\images\ic_near.png"
       style="fill:#0000ff;fill-rule:evenodd;stroke:none"
       id="rect4493"
       width="64"
       height="64"
       x="128"
       y="924.36218" />
    <rect
       inkscape:export-ydpi="90"
       inkscape:export-xdpi="90"
       inkscape:export-filename="..\..\qml\images\ic_history.png"
       y="924.36218"
       x="192"
       height="64"
       width="64"
       id="rect4495"
       style="fill:#0000ff;fill-rule:evenodd;stroke:none" />
    <rect
       style="fill:#0000ff;fill-rule:evenodd;stroke:none"
       id="rect4497"
       width="64"
       height="64"
       x="256"
       y="924.36218"
       inkscape:export-filename="..\..\qml\images\ic_about.png"
       inkscape:export-xdpi="90"
       inkscape:export-ydpi="90" />
    <rect
       y="924.36218"
       x="320"
       height="64"
       width="64"
       id="rect4499"
       style="fill:#0000ff;fill-rule:evenodd;stroke:none"
       inkscape:export-filename="..\..\qml\images\ic_city.png"
       inkscape:export-xdpi="90"
       inkscape:export-ydpi="90" />
    <rect
       y="924.36218"
       x="384"
       height="64"
       width="64"
       id="rect4501"
       style="fill:#0000ff;fill-rule:evenodd;stroke:none"
       inkscape:export-filename="..\..\qml\images\ic_near.png"
       inkscape:export-xdpi="90"
       inkscape:export-ydpi="90" />
    <rect
       style="fill:#0000ff;fill-rule:evenodd;stroke:none"
       id="rect4503"
       width="64"
       height="64"
       x="448"
       y="924.36218"
       inkscape:export-filename="..\..\qml\images\ic_history.png"
       inkscape:export-xdpi="90"
       inkscape:export-ydpi="90" />
  </g>
  <g
     inkscape:groupmode="layer"
     id="layer2"
     inkscape:label="icons"
     style="display:inline"
     transform="translate(0,64)">
    <path
       style="fill:#ffffff;stroke:none"
       d="m 30.961611,5.548406 c -1.937744,0 -3.497732,1.5599884 -3.497732,3.4977318 l 0,0.7286926 c 0,1.9377446 1.559988,3.4977326 3.497732,3.4977326 l 1.38452,0 0,12.825016 -8.598592,0 0,-10.456758 c 0,-3.229572 -2.59998,-5.8295533 -5.829552,-5.8295533 l -0.801564,0 c -3.229572,0 -5.829552,2.5999813 -5.829552,5.8295533 l 0,10.456758 -1.5666938,0 c -3.2295718,0 -5.8295522,2.599984 -5.8295522,5.829556 l 0,13.262232 c 0,2.174197 1.195688,4.025667 2.9512112,5.027988 0.261222,4.594724 4.0477728,8.234244 8.7078928,8.234244 4.382984,0 8.00146,-3.226383 8.635026,-7.43268 l 13.043624,0 c 0.63357,4.206297 4.252042,7.43268 8.635026,7.43268 4.829364,0 8.744328,-3.914968 8.744328,-8.744328 0,-0.865441 -0.13016,-1.688121 -0.364344,-2.47756 0.235816,-0.633103 0.364344,-1.323046 0.364344,-2.040344 l 0,-5.72025 0,-7.541982 0,-18.654572 2.00391,0 c 1.937744,0 3.497732,-1.559988 3.497732,-3.4977326 l 0,-0.7286926 c 0,-1.9377434 -1.559988,-3.4977318 -3.497732,-3.4977318 l -25.650032,0 z m 8.67146,7.505549 7.104766,0 c 2.225782,0 4.00782,2.013342 4.00782,4.517904 l 0,2.222518 c 0,2.504567 -1.782038,4.554338 -4.00782,4.554338 l -7.104766,0 c -2.225782,0 -4.007816,-2.049771 -4.007816,-4.554338 l 0,-2.222518 c 0,-2.504562 1.782034,-4.517904 4.007816,-4.517904 z M 15.549729,43.294763 c 3.541538,0 6.412508,2.870978 6.412508,6.412508 0,0.221344 -0.01076,0.435427 -0.03645,0.655824 -0.0219,0.21557 -0.0666,0.410672 -0.109306,0.61939 -0.0024,0.0113 0.0024,0.02513 0,0.03645 -0.611299,2.904674 -3.180266,5.10086 -6.266769,5.10086 -3.541535,0 -6.4125081,-2.870978 -6.4125081,-6.412508 0,-3.138949 2.2679641,-5.749889 5.2465971,-6.303205 0.382023,-0.07094 0.763333,-0.109305 1.165911,-0.109305 z m 30.313676,0 c 0.224112,0 0.43865,0.01458 0.655824,0.03645 1.07785,0.109462 2.061912,0.480419 2.914776,1.056606 0.177688,0.120043 0.345692,0.264008 0.510088,0.400782 0.35629,0.294037 0.698322,0.623112 0.983738,0.983737 0.02645,0.03395 0.04711,0.07482 0.07286,0.109306 0.24989,0.330041 0.473663,0.681468 0.655824,1.056606 0.01694,0.03556 0.02011,0.0734 0.03645,0.109305 0.08158,0.176056 0.153214,0.362072 0.218609,0.546521 0.231619,0.662649 0.364347,1.371536 0.364347,2.113212 0,0.04905 0.001,0.09697 0,0.14574 -0.07797,3.473764 -2.92001,6.266768 -6.412508,6.266768 -3.320187,0 -6.047694,-2.523136 -6.376074,-5.756683 -0.02577,-0.220395 -0.03645,-0.434478 -0.03645,-0.655825 0,-0.221345 0.01455,-0.440254 0.03645,-0.655825 0.06928,-0.641774 0.236274,-1.252399 0.473652,-1.821735 0.0046,-0.01055 -0.0047,-0.02595 0,-0.03645 0.07669,-0.181295 0.16261,-0.337763 0.255044,-0.510086 0.005,-0.0088 -0.005,-0.02755 0,-0.03645 0.295102,-0.543231 0.688796,-1.028098 1.129474,-1.457388 0.139013,-0.139012 0.285976,-0.274952 0.437217,-0.400782 0.164395,-0.136775 0.332403,-0.280745 0.510087,-0.400782 0.341144,-0.230475 0.673009,-0.42071 1.056606,-0.582956 0.197504,-0.08353 0.409608,-0.154447 0.61939,-0.218608 0.09479,-0.02949 0.194848,-0.04773 0.291477,-0.07286 0.0369,-0.0093 0.07216,-0.02761 0.109306,-0.03645 0.277709,-0.06695 0.547512,-0.116229 0.837998,-0.145738 0.215566,-0.0219 0.434477,-0.03645 0.655824,-0.03645 z m -30.313676,3.497732 c -1.609782,0 -2.914776,1.304988 -2.914776,2.914776 0,1.609784 1.304994,2.914776 2.914776,2.914776 1.609786,0 2.914775,-1.304992 2.914775,-2.914776 0,-1.609788 -1.304989,-2.914776 -2.914775,-2.914776 z m 30.313676,0 c -1.609781,0 -2.914776,1.304988 -2.914776,2.914776 0,1.609784 1.304995,2.914776 2.914776,2.914776 1.609786,0 2.914776,-1.304992 2.914776,-2.914776 0,-1.609788 -1.30499,-2.914776 -2.914776,-2.914776 z"
       id="rect3775"
       inkscape:connector-curvature="0" />
    <path
       style="fill:#ffffff;stroke:none"
       d="m 113.60938,7.7500025 0,2.9999995 -1.90625,0 0,3.000001 -1.90625,0 0,4 -1.28125,0 0,3 -1.90625,0 0,27.90625 -1.625,0 0,-11.28125 0,-2.59375 0,-5.4375 -10.218756,0 0,5.4375 -6.781252,0 0,13.875 -1.59375,0 0,-27.59375 -19.21875,0 0,27.59375 -1.9375,0 0,7.59375 61.531258,0 0,-7.59375 -0.9375,0 0,-27.90625 -1.90625,0 0,-3 -1.28125,0 0,-4 -1.90625,0 0,-3.000001 -1.90625,0 0,-2.9999995 -5.21875,0 z m 0.25,8.8437505 0.78125,0 0,31.84375 -0.78125,0 0,-31.84375 z m 4,0.375 0.78125,0 0,31.46875 -0.78125,0 0,-31.46875 z m -8,6.4375 0.78125,0 0,25.03125 -0.78125,0 0,-25.03125 z m 12,0 0.78125,0 0,25.03125 -0.78125,0 0,-25.03125 z m -53.562508,1.1875 2.875,0 0,3.875 -2.875,0 0,-3.875 z m 3.5,0 2.875,0 0,3.875 -2.875,0 0,-3.875 z m 3.5,0 2.875,0 0,3.875 -2.875,0 0,-3.875 z m 3.5,0 2.875,0 0,3.875 -2.875,0 0,-3.875 z m 3.5,0 2.875,0 0,3.875 -2.875,0 0,-3.875 z m -14,6 2.875,0 0,3.875 -2.875,0 0,-3.875 z m 3.5,0 2.875,0 0,3.875 -2.875,0 0,-3.875 z m 7,0 2.875,0 0,3.875 -2.875,0 0,-3.875 z m 3.5,0 2.875,0 0,3.875 -2.875,0 0,-3.875 z m 14.250002,0.21875 2.53125,0 0,3.40625 -2.53125,0 0,-3.40625 z m 3.09375,0 2.500006,0 0,3.40625 -2.500006,0 0,-3.40625 z m -31.343752,5.78125 2.875,0 0,3.875 -2.875,0 0,-3.875 z m 3.5,0 2.875,0 0,3.875 -2.875,0 0,-3.875 z m 3.5,0 2.875,0 0,3.875 -2.875,0 0,-3.875 z m 3.5,0 2.875,0 0,3.875 -2.875,0 0,-3.875 z m 3.5,0 2.875,0 0,3.875 -2.875,0 0,-3.875 z m 9.84375,0.21875 2.500002,0 0,3.40625 -2.500002,0 0,-3.40625 z m 3.093752,0 2.5,0 0,3.40625 -2.5,0 0,-3.40625 z m 3.09375,0 2.500006,0 0,3.40625 -2.500006,0 0,-3.40625 z m 3.062506,0 2.53125,0 0,3.40625 -2.53125,0 0,-3.40625 z m -33.093758,5.78125 2.875,0 0,3.875 -2.875,0 0,-3.875 z m 3.5,0 2.875,0 0,3.875 -2.875,0 0,-3.875 z m 3.5,0 2.875,0 0,3.875 -2.875,0 0,-3.875 z m 13.75,0.21875 2.53125,0 0,3.40625 -2.53125,0 0,-3.40625 z m 3.09375,0 2.500002,0 0,3.40625 -2.500002,0 0,-3.40625 z m 3.093752,0 2.5,0 0,3.40625 -2.5,0 0,-3.40625 z"
       id="rect3883"
       inkscape:connector-curvature="0" />
    <g
       style="fill:#ffffff;display:inline"
       id="g4373"
       transform="matrix(0.7557958,0,0,0.7557958,-32.042982,-788.6428)">
      <path
         transform="translate(0,988.36218)"
         id="path4348"
         d="m 253.09375,71.4375 c -14.3594,0 -26,11.640597 -26,26 0,14.3594 11.6406,26 26,26 14.3594,0 26,-11.6406 26,-26 0,-14.359403 -11.6406,-26 -26,-26 z m 0,2 c 13.25483,0 24,10.745166 24,24 0,13.25483 -10.74517,24 -24,24 -13.25483,0 -24,-10.74517 -24,-24 0,-13.254834 10.74517,-24 24,-24 z"
         style="fill:#ffffff;stroke:none"
         inkscape:connector-curvature="0" />
      <rect
         transform="matrix(0,-1,1,0,0,0)"
         style="fill:#ffffff;stroke:none"
         id="rect4360"
         width="2"
         height="23.708826"
         x="-1086.7997"
         y="267.23932" />
      <path
         inkscape:connector-curvature="0"
         style="fill:#ffffff;stroke:none"
         d="m 227.09375,1085.7997 c 0,14.3594 11.6406,26 26,26 14.3594,0 26,-11.6406 26,-26 0,-14.3594 -11.6406,-26 -26,-26 -14.3594,0 -26,11.6406 -26,26 z m 2,0 c 0,-13.2548 10.74517,-24 24,-24 13.25483,0 24,10.7452 24,24 0,13.2548 -10.74517,24 -24,24 -13.25483,0 -24,-10.7452 -24,-24 z"
         id="path4365" />
      <rect
         y="-1121.6541"
         x="-254.09375"
         height="23.708826"
         width="2"
         id="rect4367"
         style="fill:#ffffff;stroke:none"
         transform="scale(-1,-1)" />
      <rect
         transform="scale(-1,-1)"
         style="fill:#ffffff;stroke:none"
         id="rect4369"
         width="2"
         height="23.708826"
         x="-254.09375"
         y="-1073.6541" />
      <rect
         y="217.23933"
         x="-1086.7997"
         height="23.708826"
         width="2"
         id="rect4371"
         style="fill:#ffffff;stroke:none"
         transform="matrix(0,-1,1,0,0,0)" />
    </g>
    <g
       id="g4439"
       transform="matrix(1.2456255,0,0,1.2456255,25.67511,-112.49264)"
       style="fill:#ffffff">
      <path
         inkscape:connector-curvature="0"
         style="fill:#ffffff;stroke:none"
         d="m 159.21708,95.643869 c -11.2424,0 -20.35617,9.113771 -20.35617,20.356171 0,11.2424 9.11377,20.35617 20.35617,20.35617 11.2424,0 20.35617,-9.11377 20.35617,-20.35617 0,-11.2424 -9.11377,-20.356171 -20.35617,-20.356171 z m 0,1.565859 c 10.3776,0 18.79031,8.412712 18.79031,18.790312 0,10.3776 -8.41271,18.79031 -18.79031,18.79031 -10.3776,0 -18.79031,-8.41271 -18.79031,-18.79031 0,-10.3776 8.41271,-18.790312 18.79031,-18.790312 z"
         id="path4419" />
      <path
         id="path4423"
         d="m 138.86091,116.00005 c 0,11.2424 9.11377,20.35617 20.35617,20.35617 11.2424,0 20.35617,-9.11377 20.35617,-20.35617 0,-11.24239 -9.11377,-20.356165 -20.35617,-20.356165 -11.2424,0 -20.35617,9.113775 -20.35617,20.356165 z m 1.56586,0 c 0,-10.37757 8.41271,-18.790306 18.79031,-18.790306 10.3776,0 18.79031,8.412736 18.79031,18.790306 0,10.37758 -8.41271,18.79032 -18.79031,18.79032 -10.3776,0 -18.79031,-8.41274 -18.79031,-18.79032 z"
         style="fill:#ffffff;stroke:none"
         inkscape:connector-curvature="0" />
      <rect
         transform="scale(-1,-1)"
         style="fill:#ffffff;stroke:none"
         id="rect4425"
         width="1"
         height="18.562342"
         x="-159.71709"
         y="-132.06239" />
      <rect
         inkscape:transform-center-x="9.5022754"
         transform="matrix(0.70710678,-0.70710678,0.70710678,0.70710678,0,0)"
         style="fill:#ffffff;stroke:none"
         id="rect4429"
         width="2"
         height="18.562342"
         x="29.559055"
         y="178.5811" />
      <path
         transform="matrix(0.68596632,0,0,0.64309343,24.383751,53.904572)"
         d="m 200.20419,96.55748 a 3.6444938,3.88746 0 1 1 -7.28899,0 3.6444938,3.88746 0 1 1 7.28899,0 z"
         sodipodi:ry="3.88746"
         sodipodi:rx="3.6444938"
         sodipodi:cy="96.55748"
         sodipodi:cx="196.55969"
         id="path4437"
         style="fill:#ffffff;stroke:none"
         sodipodi:type="arc" />
    </g>
    <flowRoot
       xml:space="preserve"
       id="flowRoot4454"
       style="font-size:40px;font-style:normal;font-weight:normal;line-height:125%;letter-spacing:0px;word-spacing:0px;fill:#ffffff;fill-opacity:1;stroke:none;display:inline;font-family:Sans"
       transform="matrix(1.6286491,0,0,1.6286491,26.754505,-216.54249)"
       inkscape:export-filename="..\..\qml\images\ic_about.png"
       inkscape:export-xdpi="90"
       inkscape:export-ydpi="90"><flowRegion
         id="flowRegion4456"><rect
           id="rect4458"
           width="101.01855"
           height="133.45569"
           x="153.84476"
           y="133.50818"
           style="fill:#ffffff" /></flowRegion><flowPara
         id="flowPara4460"
         style="font-weight:bold;fill:#ffffff;-inkscape-font-specification:Sans Bold">!</flowPara></flowRoot>    <path
       inkscape:connector-curvature="0"
       id="path4543"
       d="m 31.183257,-48.80545 c -1.524128,0 -2.751134,1.227006 -2.751134,2.751134 l 0,0.573154 c 0,1.524129 1.227006,2.751135 2.751134,2.751135 l 1.08899,0 0,10.087492 -6.763204,0 0,-8.224746 c 0,-2.540214 -2.04501,-4.585225 -4.585224,-4.585225 l -0.630468,0 c -2.540214,0 -4.585224,2.045011 -4.585224,4.585225 l 0,8.224746 -1.232278,0 c -2.540214,0 -4.585224,2.045008 -4.585224,4.585222 l 0,10.431384 c 0,1.710109 0.940466,3.166383 2.32127,3.954756 0.205464,3.613971 3.183768,6.476628 6.849178,6.476628 3.447428,0 6.29353,-2.5377054 6.791862,-5.84616 l 10.259438,0 c 0.49833,3.3084546 3.344434,5.84616 6.791862,5.84616 3.798528,0 6.877836,-3.079311 6.877836,-6.877836 0,-0.680707 -0.10238,-1.327785 -0.286578,-1.94872 0.185482,-0.497965 0.286578,-1.040638 0.286578,-1.604828 l 0,-4.49925 0,-5.932134 0,-14.672714 1.57617,0 c 1.524128,0 2.751134,-1.227006 2.751134,-2.751135 l 0,-0.573154 c 0,-1.524128 -1.227006,-2.751134 -2.751134,-2.751134 l -20.174984,0 z m 6.82052,5.903477 5.588242,0 c 1.750684,0 3.15234,1.583586 3.15234,3.553548 l 0,1.748116 c 0,1.969961 -1.401656,3.582206 -3.15234,3.582206 l -5.588242,0 c -1.750684,0 -3.152342,-1.612245 -3.152342,-3.582206 l 0,-1.748116 c 0,-1.969962 1.401658,-3.553548 3.152342,-3.553548 z m -18.942704,23.785846 c 2.785586,0 5.043746,2.258162 5.043746,5.043746 0,0.1741 -0.0084,0.342487 -0.02865,0.515838 -0.01722,0.169556 -0.05238,0.323013 -0.08597,0.48718 -0.0018,0.0089 0.0018,0.01978 0,0.02866 -0.480816,2.284665 -2.501432,4.0120712 -4.929115,4.0120712 -2.785588,0 -5.043746,-2.2581622 -5.043746,-5.0437452 0,-2.468934 1.783863,-4.522564 4.126701,-4.957775 0.300479,-0.05581 0.600398,-0.08597 0.917045,-0.08597 z m 23.843162,0 c 0.176274,0 0.34502,0.01146 0.515838,0.02865 0.84778,0.08611 1.621794,0.377873 2.292612,0.831071 0.139756,0.09442 0.271904,0.207655 0.401206,0.315235 0.28024,0.231274 0.549264,0.490107 0.773756,0.773756 0.02081,0.02669 0.03704,0.05886 0.05732,0.08597 0.19655,0.259594 0.372559,0.536008 0.515838,0.831072 0.01334,0.02797 0.01582,0.05774 0.02865,0.08597 0.06418,0.138475 0.120509,0.284786 0.171946,0.429864 0.18218,0.521205 0.286577,1.078778 0.286577,1.662143 0,0.03859 7.84e-4,0.07627 0,0.114631 -0.06135,2.732283 -2.29673,4.9291145 -5.043746,4.9291145 -2.611487,0 -4.756803,-1.9845675 -5.015088,-4.5279075 -0.02025,-0.173352 -0.02865,-0.341739 -0.02865,-0.515838 0,-0.174099 0.01143,-0.346281 0.02865,-0.515838 0.05449,-0.504787 0.185838,-0.985073 0.372548,-1.432882 0.0034,-0.0082 -0.0035,-0.02043 0,-0.02865 0.06031,-0.142597 0.127901,-0.265667 0.200604,-0.401206 0.0038,-0.007 -0.0038,-0.02167 0,-0.02865 0.232114,-0.427276 0.541772,-0.808649 0.888388,-1.146306 0.109338,-0.109338 0.224932,-0.216261 0.343891,-0.315234 0.129303,-0.10758 0.261449,-0.220818 0.401207,-0.315234 0.268328,-0.18128 0.529355,-0.330909 0.831072,-0.458523 0.155348,-0.06571 0.322176,-0.12148 0.48718,-0.171946 0.07457,-0.02319 0.153256,-0.03753 0.229261,-0.05732 0.02904,-0.0075 0.05674,-0.02173 0.08597,-0.02865 0.218431,-0.05267 0.430644,-0.09142 0.659126,-0.11463 0.169552,-0.01722 0.341736,-0.02865 0.515838,-0.02865 z m -23.843162,2.751134 c -1.266174,0 -2.292612,1.026438 -2.292612,2.292612 0,1.266175 1.026438,2.292613 2.292612,2.292613 1.266172,0 2.292611,-1.026438 2.292611,-2.292613 0,-1.266174 -1.026439,-2.292612 -2.292611,-2.292612 z m 23.843162,0 c -1.266173,0 -2.292612,1.026438 -2.292612,2.292612 0,1.266175 1.026439,2.292613 2.292612,2.292613 1.266172,0 2.292612,-1.026438 2.292612,-2.292613 0,-1.266174 -1.02644,-2.292612 -2.292612,-2.292612 z"
       style="fill:#ffff00;stroke:none" />
    <path
       inkscape:connector-curvature="0"
       id="path4545"
       d="m 110.17516,-47.520695 0,2.414933 -1.53449,0 0,2.414929 -1.53449,0 0,3.21991 -1.0314,0 0,2.414934 -1.53448,0 0,22.463892 -1.3081,0 0,-9.081148 0,-2.087908 0,-4.377066 -8.225844,0 0,4.377066 -5.458755,0 0,11.169056 -1.282933,0 0,-22.21234 -15.470652,0 0,22.21234 -1.559644,0 0,6.1127962 49.531258,0 0,-6.1127962 -0.75468,0 0,-22.463892 -1.53449,0 0,-2.414934 -1.03135,0 0,-3.21991 -1.53449,0 0,-2.414929 -1.53449,0 0,-2.414934 -4.20097,0 z m 0.20122,7.11902 0.62891,0 0,25.633492 -0.62891,0 0,-25.633492 z m 3.21994,0.301866 0.62885,0 0,25.331626 -0.62885,0 0,-25.331626 z m -6.43982,5.18204 0.62885,0 0,20.149586 -0.62885,0 0,-20.149586 z m 9.6597,0 0.62891,0 0,20.149586 -0.62891,0 0,-20.149586 z m -43.116586,0.955908 2.314312,0 0,3.119288 -2.314312,0 0,-3.119288 z m 2.817422,0 2.314306,0 0,3.119288 -2.314306,0 0,-3.119288 z m 2.817418,0 2.31431,0 0,3.119288 -2.31431,0 0,-3.119288 z m 2.81742,0 2.314312,0 0,3.119288 -2.314312,0 0,-3.119288 z m 2.817422,0 2.314306,0 0,3.119288 -2.314306,0 0,-3.119288 z m -11.269682,4.829863 2.314312,0 0,3.119287 -2.314312,0 0,-3.119287 z m 2.817422,0 2.314306,0 0,3.119287 -2.314306,0 0,-3.119287 z m 5.634838,0 2.314312,0 0,3.119287 -2.314312,0 0,-3.119287 z m 2.817422,0 2.314306,0 0,3.119287 -2.314306,0 0,-3.119287 z m 11.470926,0.176089 2.037596,0 0,2.741954 -2.037596,0 0,-2.741954 z m 2.490398,0 2.01247,0 0,2.741954 -2.01247,0 0,-2.741954 z m -25.231006,4.653778 2.314312,0 0,3.119282 -2.314312,0 0,-3.119282 z m 2.817422,0 2.314306,0 0,3.119282 -2.314306,0 0,-3.119282 z m 2.817418,0 2.31431,0 0,3.119282 -2.31431,0 0,-3.119282 z m 2.81742,0 2.314312,0 0,3.119282 -2.314312,0 0,-3.119282 z m 2.817422,0 2.314306,0 0,3.119282 -2.314306,0 0,-3.119282 z m 7.923993,0.176084 2.012445,0 0,2.741954 -2.012445,0 0,-2.741954 z m 2.490401,0 2.01244,0 0,2.741954 -2.01244,0 0,-2.741954 z m 2.490396,0 2.012461,0 0,2.741954 -2.012461,0 0,-2.741954 z m 2.465224,0 2.03763,0 0,2.741954 -2.03763,0 0,-2.741954 z m -26.639696,4.653778 2.314312,0 0,3.119286 -2.314312,0 0,-3.119286 z m 2.817422,0 2.314306,0 0,3.119286 -2.314306,0 0,-3.119286 z m 2.817418,0 2.31431,0 0,3.119286 -2.31431,0 0,-3.119286 z m 11.068436,0.176089 2.0376,0 0,2.741952 -2.0376,0 0,-2.741952 z m 2.490399,0 2.012445,0 0,2.741952 -2.012445,0 0,-2.741952 z m 2.490401,0 2.01244,0 0,2.741952 -2.01244,0 0,-2.741952 z"
       style="fill:#ffff00;stroke:none" />
  </g>
</svg>
