<?xml version="1.0" encoding="UTF-8" standalone="no"?>
<!-- Created with Inkscape (http://www.inkscape.org/) -->

<svg
   xmlns:dc="http://purl.org/dc/elements/1.1/"
   xmlns:cc="http://creativecommons.org/ns#"
   xmlns:rdf="http://www.w3.org/1999/02/22-rdf-syntax-ns#"
   xmlns:svg="http://www.w3.org/2000/svg"
   xmlns="http://www.w3.org/2000/svg"
   xmlns:sodipodi="http://sodipodi.sourceforge.net/DTD/sodipodi-0.dtd"
   xmlns:inkscape="http://www.inkscape.org/namespaces/inkscape"
   width="80"
   height="80"
   id="svg2"
   version="1.1"
   inkscape:version="0.48.2 r9819"
   sodipodi:docname="taginfo.svg"
   inkscape:export-filename="..\..\taginfo64.png"
   inkscape:export-xdpi="72"
   inkscape:export-ydpi="72">
  <defs
     id="defs4">
    <filter
       inkscape:collect="always"
       id="filter3793">
      <feGaussianBlur
         inkscape:collect="always"
         stdDeviation="0.45831882"
         id="feGaussianBlur3795" />
    </filter>
    <filter
       inkscape:collect="always"
       id="filter3811">
      <feGaussianBlur
         inkscape:collect="always"
         stdDeviation="0.74"
         id="feGaussianBlur3813" />
    </filter>
  </defs>
  <sodipodi:namedview
     id="base"
     pagecolor="#ffffff"
     bordercolor="#666666"
     borderopacity="1.0"
     inkscape:pageopacity="0.0"
     inkscape:pageshadow="2"
     inkscape:zoom="3.2430556"
     inkscape:cx="27.613877"
     inkscape:cy="40"
     inkscape:document-units="px"
     inkscape:current-layer="layer2"
     showgrid="false"
     inkscape:window-width="1366"
     inkscape:window-height="716"
     inkscape:window-x="-8"
     inkscape:window-y="-8"
     inkscape:window-maximized="1"
     showguides="true"
     inkscape:guide-bbox="true" />
  <metadata
     id="metadata7">
    <rdf:RDF>
      <cc:Work
         rdf:about="">
        <dc:format>image/svg+xml</dc:format>
        <dc:type
           rdf:resource="http://purl.org/dc/dcmitype/StillImage" />
        <dc:title></dc:title>
      </cc:Work>
    </rdf:RDF>
  </metadata>
  <g
     inkscape:label="back"
     inkscape:groupmode="layer"
     id="layer1"
     transform="translate(0,-972.36218)"
     style="display:inline" />
  <g
     inkscape:groupmode="layer"
     id="layer2"
     inkscape:label="icons"
     style="display:inline"
     transform="translate(0,16)">
    <rect
       ry="12.333333"
       rx="12.333333"
       y="-13"
       x="3"
       height="74"
       width="74"
       id="rect3809"
       style="fill:#000000;fill-opacity:1;stroke:none;filter:url(#filter3811)" />
    <rect
       style="fill:#0000ff;fill-opacity:1;stroke:none"
       id="rect3807"
       width="72"
       height="72"
       x="4"
       y="-12"
       rx="12"
       ry="12" />
    <path
       inkscape:connector-curvature="0"
       id="path3797"
       d="m 41.035493,1.4304512 c -1.799872,0 -3.248866,1.4489938 -3.248866,3.2488662 l 0,0.676845 c 0,1.7998732 1.448994,3.2488672 3.248866,3.2488672 l 1.28601,0 0,11.9125094 -7.986796,0 0,-9.712754 c 0,-2.9997864 -2.41499,-5.4147772 -5.414776,-5.4147772 l -0.744532,0 c -2.999786,0 -5.414776,2.4149908 -5.414776,5.4147772 l 0,9.712754 -1.455222,0 c -2.999786,0 -5.414776,2.414992 -5.414776,5.414778 l 0,12.318616 c 0,2.019501 1.110614,3.739239 2.741231,4.670244 0.242636,4.267806 3.759771,7.648372 8.088321,7.648372 4.071132,0 7.43215,-2.996823 8.020638,-6.90384 l 12.115562,0 c 0.58849,3.907017 3.949506,6.90384 8.020638,6.90384 4.485751,0 8.122163,-3.636416 8.122163,-8.122164 0,-0.803863 -0.120899,-1.568009 -0.338421,-2.30128 0.219038,-0.588057 0.338421,-1.22891 0.338421,-1.895172 l 0,-5.31325 0,-7.005366 0,-17.3272874 1.86133,0 c 1.799873,0 3.248867,-1.448994 3.248867,-3.2488672 l 0,-0.676845 c 0,-1.7998724 -1.448994,-3.2488662 -3.248867,-3.2488662 l -23.825015,0 z m 8.05448,6.9715244 6.599257,0 c 2.067416,0 3.722661,1.8700914 3.722661,4.1964524 l 0,2.064385 c 0,2.326365 -1.655245,4.230294 -3.722661,4.230294 l -6.599257,0 c -2.067416,0 -3.722658,-1.903929 -3.722658,-4.230294 l 0,-2.064385 c 0,-2.326361 1.655242,-4.1964524 3.722658,-4.1964524 z M 26.720177,36.491131 c 3.289554,0 5.956254,2.666706 5.956254,5.956254 0,0.205596 -0.01,0.404447 -0.03385,0.609162 -0.02034,0.200232 -0.06186,0.381452 -0.101528,0.57532 -0.0022,0.0105 0.0022,0.02335 0,0.03385 -0.567805,2.698005 -2.953988,4.737931 -5.820885,4.737931 -3.289553,0 -5.956254,-2.666706 -5.956254,-5.956254 0,-2.915611 2.106598,-5.340781 4.873299,-5.854729 0.354841,-0.0659 0.709021,-0.101527 1.082955,-0.101527 z m 28.156838,0 c 0.208166,0 0.407439,0.01354 0.609161,0.03385 1.00116,0.101673 1.915206,0.446236 2.707388,0.981427 0.165045,0.111502 0.321096,0.245223 0.473795,0.372267 0.33094,0.273115 0.648636,0.578776 0.913744,0.913743 0.02457,0.03153 0.04376,0.0695 0.06768,0.101528 0.23211,0.306559 0.439962,0.632982 0.609162,0.981428 0.01573,0.03304 0.01868,0.06818 0.03386,0.101528 0.07578,0.163529 0.142313,0.336311 0.203055,0.507636 0.215139,0.615501 0.338423,1.27395 0.338423,1.962856 0,0.04556 9.29e-4,0.09007 0,0.13537 -0.07242,3.226604 -2.712249,5.820884 -5.956254,5.820884 -3.083953,0 -5.617396,-2.343614 -5.922412,-5.347092 -0.02394,-0.204714 -0.03386,-0.403565 -0.03386,-0.609162 0,-0.205597 0.01351,-0.40893 0.03386,-0.609163 0.06435,-0.596112 0.219463,-1.163291 0.439951,-1.692117 0.0043,-0.0098 -0.0044,-0.02411 0,-0.03385 0.07123,-0.168395 0.151041,-0.313731 0.236898,-0.473792 0.0046,-0.0082 -0.0046,-0.02559 0,-0.03385 0.274105,-0.50458 0.639788,-0.954949 1.049111,-1.353694 0.129122,-0.129121 0.265629,-0.255389 0.406109,-0.372266 0.152698,-0.127044 0.308752,-0.26077 0.473794,-0.372267 0.316871,-0.214075 0.625124,-0.390776 0.981428,-0.541478 0.183451,-0.07759 0.380464,-0.143457 0.57532,-0.203054 0.08805,-0.02739 0.180984,-0.04433 0.270738,-0.06768 0.03427,-0.0087 0.06703,-0.02565 0.101529,-0.03385 0.257949,-0.06219 0.508556,-0.107959 0.778374,-0.135368 0.200228,-0.02034 0.403563,-0.03385 0.609161,-0.03385 z m -28.156838,3.248866 c -1.495246,0 -2.707388,1.212138 -2.707388,2.707388 0,1.495248 1.212142,2.707388 2.707388,2.707388 1.495248,0 2.707387,-1.21214 2.707387,-2.707388 0,-1.49525 -1.212139,-2.707388 -2.707387,-2.707388 z m 28.156838,0 c -1.495245,0 -2.707388,1.212138 -2.707388,2.707388 0,1.495248 1.212143,2.707388 2.707388,2.707388 1.495248,0 2.707387,-1.21214 2.707387,-2.707388 0,-1.49525 -1.212139,-2.707388 -2.707387,-2.707388 z"
       style="fill:#000000;stroke:none" />
    <path
       style="fill:#ffffff;stroke:none"
       d="m 40.264613,0.6595732 c -1.799872,0 -3.248866,1.4489939 -3.248866,3.2488662 l 0,0.676845 c 0,1.7998732 1.448994,3.2488672 3.248866,3.2488672 l 1.28601,0 0,11.9125074 -7.986796,0 0,-9.712752 c 0,-2.9997864 -2.41499,-5.4147772 -5.414776,-5.4147772 l -0.744532,0 c -2.999786,0 -5.414776,2.4149908 -5.414776,5.4147772 l 0,9.712752 -1.455222,0 c -2.999786,0 -5.414776,2.414992 -5.414776,5.414778 l 0,12.318616 c 0,2.019501 1.110614,3.739239 2.741231,4.670244 0.242636,4.267806 3.759771,7.648372 8.088321,7.648372 4.071132,0 7.43215,-2.996823 8.020638,-6.90384 l 12.115562,0 c 0.58849,3.907017 3.949506,6.90384 8.020638,6.90384 4.485751,0 8.122163,-3.636416 8.122163,-8.122164 0,-0.803863 -0.120899,-1.568009 -0.338421,-2.30128 0.219038,-0.588057 0.338421,-1.22891 0.338421,-1.895172 l 0,-5.31325 0,-7.005366 0,-17.3272854 1.86133,0 c 1.799873,0 3.248867,-1.448994 3.248867,-3.2488672 l 0,-0.676845 c 0,-1.7998724 -1.448994,-3.2488662 -3.248867,-3.2488662 l -23.825015,0 z m 8.05448,6.9715244 6.599257,0 c 2.067416,0 3.722661,1.8700914 3.722661,4.1964514 l 0,2.064384 c 0,2.326365 -1.655245,4.230294 -3.722661,4.230294 l -6.599257,0 c -2.067416,0 -3.722658,-1.903929 -3.722658,-4.230294 l 0,-2.064384 c 0,-2.32636 1.655242,-4.1964514 3.722658,-4.1964514 z M 25.949297,35.720251 c 3.289554,0 5.956254,2.666706 5.956254,5.956254 0,0.205596 -0.01,0.404447 -0.03385,0.609162 -0.02034,0.200232 -0.06186,0.381452 -0.101528,0.57532 -0.0022,0.0105 0.0022,0.02335 0,0.03385 -0.567805,2.698005 -2.953988,4.737931 -5.820885,4.737931 -3.289553,0 -5.956254,-2.666706 -5.956254,-5.956254 0,-2.915611 2.106598,-5.340781 4.873299,-5.854729 0.354841,-0.0659 0.709021,-0.101527 1.082955,-0.101527 z m 28.156838,0 c 0.208166,0 0.407439,0.01354 0.609161,0.03385 1.00116,0.101673 1.915206,0.446236 2.707388,0.981427 0.165045,0.111502 0.321096,0.245223 0.473795,0.372267 0.33094,0.273115 0.648636,0.578776 0.913744,0.913743 0.02457,0.03153 0.04376,0.0695 0.06768,0.101528 0.23211,0.306559 0.439962,0.632982 0.609162,0.981428 0.01573,0.03304 0.01868,0.06818 0.03386,0.101528 0.07578,0.163529 0.142313,0.336311 0.203055,0.507636 0.215139,0.615501 0.338423,1.27395 0.338423,1.962856 0,0.04556 9.29e-4,0.09007 0,0.13537 -0.07242,3.226604 -2.712249,5.820884 -5.956254,5.820884 -3.083953,0 -5.617396,-2.343614 -5.922412,-5.347092 -0.02394,-0.204714 -0.03386,-0.403565 -0.03386,-0.609162 0,-0.205597 0.01351,-0.40893 0.03386,-0.609163 0.06435,-0.596112 0.219463,-1.163291 0.439951,-1.692117 0.0043,-0.0098 -0.0044,-0.02411 0,-0.03385 0.07123,-0.168395 0.151041,-0.313731 0.236898,-0.473792 0.0046,-0.0082 -0.0046,-0.02559 0,-0.03385 0.274105,-0.50458 0.639788,-0.954949 1.049111,-1.353694 0.129122,-0.129121 0.265629,-0.255389 0.406109,-0.372266 0.152698,-0.127044 0.308752,-0.26077 0.473794,-0.372267 0.316871,-0.214075 0.625124,-0.390776 0.981428,-0.541478 0.183451,-0.07759 0.380464,-0.143457 0.57532,-0.203054 0.08805,-0.02739 0.180984,-0.04433 0.270738,-0.06768 0.03427,-0.0087 0.06703,-0.02565 0.101529,-0.03385 0.257949,-0.06219 0.508556,-0.107959 0.778374,-0.135368 0.200228,-0.02034 0.403563,-0.03385 0.609161,-0.03385 z m -28.156838,3.248866 c -1.495246,0 -2.707388,1.212138 -2.707388,2.707388 0,1.495248 1.212142,2.707388 2.707388,2.707388 1.495248,0 2.707387,-1.21214 2.707387,-2.707388 0,-1.49525 -1.212139,-2.707388 -2.707387,-2.707388 z m 28.156838,0 c -1.495245,0 -2.707388,1.212138 -2.707388,2.707388 0,1.495248 1.212143,2.707388 2.707388,2.707388 1.495248,0 2.707387,-1.21214 2.707387,-2.707388 0,-1.49525 -1.212139,-2.707388 -2.707387,-2.707388 z"
       id="rect3775"
       inkscape:connector-curvature="0" />
  </g>
</svg>
